<svg width="108" height="90" viewBox="0 0 108 90" fill="none" xmlns="http://www.w3.org/2000/svg">
<g clip-path="url(#clip0)">
<path d="M6.40236 26.6335C6.26582 26.5394 6.10449 26.4881 5.9388 26.4859C5.77311 26.4838 5.6105 26.5309 5.47157 26.6214C5.33263 26.7118 5.22362 26.8415 5.15832 26.9941C5.09303 27.1466 5.07439 27.3152 5.10477 27.4783C5.13515 27.6415 5.21317 27.792 5.32897 27.9107C5.44477 28.0294 5.59314 28.1111 5.75528 28.1453C5.91743 28.1795 6.08607 28.1648 6.23985 28.1029C6.39363 28.0411 6.52564 27.935 6.61916 27.7979C6.74453 27.6147 6.79212 27.3891 6.75147 27.1707C6.71081 26.9524 6.58524 26.7591 6.40236 26.6335Z" fill="#ABABAB"/>
<path d="M4.64124 31.9597C4.33732 31.7983 3.99245 31.7309 3.65025 31.7658C3.30805 31.8008 2.98387 31.9366 2.71872 32.1561C2.45357 32.3756 2.25935 32.6689 2.16061 32.9989C2.06186 33.329 2.06304 33.681 2.16398 34.0103C2.26493 34.3397 2.46111 34.6317 2.72772 34.8494C2.99433 35.0671 3.3194 35.2008 3.66183 35.2334C4.00426 35.2661 4.34866 35.1963 4.65151 35.0329C4.95435 34.8696 5.20203 34.6199 5.36323 34.3155C5.57919 33.9072 5.62445 33.4297 5.48907 32.9879C5.35369 32.5462 5.04874 32.1763 4.64124 31.9597Z" fill="#ABABAB"/>
<path d="M3.61393 39.4117C3.12787 39.2194 2.59579 39.1757 2.08496 39.2863C1.57413 39.3968 1.10751 39.6567 0.744106 40.0329C0.380701 40.4091 0.136835 40.8848 0.0433504 41.3998C-0.0501338 41.9149 0.0109616 42.4461 0.21891 42.9264C0.426858 43.4067 0.77232 43.8144 1.2116 44.098C1.65089 44.3815 2.16427 44.5283 2.68681 44.5196C3.20936 44.5109 3.7176 44.3472 4.14726 44.0492C4.57692 43.7512 4.90871 43.3323 5.10066 42.8454C5.22822 42.5221 5.29095 42.1769 5.28527 41.8294C5.27958 41.4818 5.2056 41.1389 5.06753 40.82C4.92946 40.5011 4.73002 40.2126 4.48061 39.971C4.2312 39.7293 3.9367 39.5393 3.61393 39.4117Z" fill="#ABABAB"/>
<path d="M4.90972 48.5452C4.23355 48.3605 3.51789 48.3808 2.8532 48.6034C2.18852 48.8261 1.60466 49.2411 1.17543 49.7961C0.746198 50.3511 0.490866 51.0211 0.441712 51.7214C0.392559 52.4217 0.551789 53.1209 0.899276 53.7305C1.24676 54.3402 1.7669 54.833 2.39395 55.1466C3.02099 55.4602 3.72678 55.5806 4.42211 55.4925C5.11743 55.4044 5.77106 55.1117 6.30038 54.6516C6.82969 54.1914 7.21093 53.5844 7.39589 52.9073C7.51865 52.4573 7.55172 51.9876 7.49321 51.5249C7.4347 51.0621 7.28576 50.6155 7.05489 50.2104C6.82402 49.8053 6.51574 49.4498 6.14767 49.1641C5.7796 48.8784 5.35894 48.6681 4.90972 48.5452Z" fill="#ABABAB"/>
<path d="M12.769 64.8328C12.9091 63.9636 12.7887 63.0723 12.4232 62.2715C12.0576 61.4708 11.4632 60.7966 10.7152 60.3342C9.96715 59.8718 9.09904 59.6419 8.22058 59.6735C7.34213 59.7052 6.49278 59.9971 5.77989 60.5122C5.067 61.0273 4.52258 61.7426 4.21546 62.5676C3.90833 63.3926 3.85229 64.2903 4.05442 65.1472C4.25654 66.0041 4.70776 66.7817 5.35103 67.3818C5.9943 67.9819 6.80075 68.3774 7.66842 68.5185C8.24497 68.6124 8.83435 68.5915 9.40284 68.457C9.97132 68.3225 10.5078 68.0771 10.9815 67.7348C11.4552 67.3925 11.8569 66.96 12.1636 66.4621C12.4704 65.9641 12.6761 65.4105 12.769 64.8328Z" fill="#ABABAB"/>
<path opacity="0.2" d="M36.4313 89.2291C36.4443 89.0639 36.408 88.8987 36.3271 88.7543C36.2462 88.6098 36.1243 88.4927 35.9769 88.4176C35.8295 88.3426 35.6631 88.3131 35.499 88.3329C35.3348 88.3526 35.1802 88.4207 35.0547 88.5285C34.9292 88.6364 34.8384 88.7791 34.794 88.9386C34.7495 89.0981 34.7533 89.2673 34.8049 89.4247C34.8564 89.582 34.9535 89.7205 35.0837 89.8226C35.2139 89.9247 35.3714 89.9857 35.5363 89.9981C35.7565 90.0138 35.974 89.9418 36.1416 89.7978C36.3092 89.6539 36.4133 89.4495 36.4313 89.2291Z" fill="#ABABAB"/>
<path opacity="0.4" d="M29.7983 85.2426C29.4599 85.1782 29.1101 85.2157 28.7931 85.3505C28.4761 85.4853 28.2062 85.7112 28.0174 85.9997C27.8287 86.2883 27.7297 86.6264 27.7329 86.9714C27.7361 87.3163 27.8414 87.6525 28.0354 87.9375C28.2295 88.2225 28.5036 88.4434 28.8231 88.5722C29.1425 88.701 29.493 88.732 29.83 88.6613C30.1671 88.5905 30.4756 88.4212 30.7166 88.1747C30.9575 87.9283 31.12 87.6157 31.1836 87.2767C31.2691 86.823 31.1712 86.3538 30.9114 85.9723C30.6517 85.5908 30.2512 85.3284 29.7983 85.2426Z" fill="#ABABAB"/>
<path opacity="0.6" d="M22.9781 80.1206C22.4787 79.9662 21.9448 79.9637 21.444 80.1133C20.9431 80.263 20.4978 80.558 20.1644 80.9612C19.831 81.3643 19.6244 81.8575 19.5708 82.3782C19.5172 82.899 19.619 83.424 19.8633 83.8868C20.1076 84.3496 20.4835 84.7294 20.9433 84.9783C21.4032 85.2271 21.9263 85.3337 22.4467 85.2847C22.967 85.2357 23.4612 85.0331 23.8666 84.7028C24.2721 84.3724 24.5706 83.929 24.7244 83.4287C24.9298 82.758 24.8613 82.0332 24.534 81.413C24.2066 80.7929 23.6471 80.3281 22.9781 80.1206Z" fill="#ABABAB"/>
<path opacity="0.8" d="M16.5708 72.0398C15.9272 71.761 15.2155 71.6796 14.5258 71.806C13.836 71.9323 13.1991 72.2607 12.6957 72.7496C12.1922 73.2385 11.8448 73.8659 11.6974 74.5526C11.55 75.2393 11.6092 75.9543 11.8674 76.6073C12.1257 77.2603 12.5715 77.8219 13.1485 78.2211C13.7254 78.6203 14.4075 78.8391 15.1087 78.85C15.8098 78.8609 16.4984 78.6632 17.0873 78.2821C17.6763 77.9009 18.1392 77.3534 18.4175 76.7087C18.7901 75.8442 18.8049 74.8669 18.4587 73.9915C18.1124 73.1161 17.4334 72.4141 16.5708 72.0398Z" fill="#ABABAB"/>
<path d="M33.6805 0.556844C33.6249 0.400606 33.5242 0.264411 33.3913 0.165479C33.2583 0.0665477 33.0991 0.00932362 32.9337 0.00104527C32.7683 -0.00723309 32.6041 0.0338069 32.462 0.118972C32.3199 0.204137 32.2062 0.329602 32.1353 0.479505C32.0643 0.629407 32.0394 0.797013 32.0635 0.961125C32.0877 1.12524 32.1599 1.27848 32.271 1.40149C32.3821 1.5245 32.5272 1.61174 32.6878 1.65217C32.8484 1.69261 33.0174 1.68444 33.1734 1.62868C33.382 1.55325 33.5524 1.39823 33.6474 1.19745C33.7424 0.996658 33.7543 0.766383 33.6805 0.556844Z" fill="#ABABAB"/>
<path d="M29.1329 3.82522C28.9814 3.51579 28.7418 3.25829 28.4443 3.0853C28.1467 2.9123 27.8046 2.83157 27.4613 2.85333C27.1179 2.87509 26.7888 2.99835 26.5153 3.20752C26.2419 3.4167 26.0366 3.7024 25.9253 4.02847C25.814 4.35455 25.8018 4.70637 25.8901 5.03942C25.9784 5.37248 26.1634 5.67181 26.4216 5.89957C26.6798 6.12732 26.9996 6.27326 27.3406 6.31894C27.6816 6.36461 28.0284 6.30796 28.3373 6.15616C28.7511 5.95246 29.0673 5.59258 29.2165 5.15555C29.3657 4.71852 29.3356 4.24006 29.1329 3.82522Z" fill="#ABABAB"/>
<path d="M23.9259 9.24992C23.6455 8.80794 23.2406 8.45917 22.7623 8.2477C22.2841 8.03624 21.754 7.97158 21.239 8.0619C20.7241 8.15222 20.2474 8.39347 19.8693 8.75514C19.4913 9.11681 19.2287 9.58265 19.115 10.0938C19.0012 10.6049 19.0413 11.1383 19.2302 11.6266C19.4191 12.1149 19.7483 12.5361 20.1762 12.837C20.6041 13.1378 21.1114 13.3049 21.6341 13.3169C22.1567 13.329 22.6712 13.1855 23.1124 12.9047C23.4055 12.7183 23.6591 12.4759 23.8586 12.1913C24.0581 11.9068 24.1997 11.5856 24.2753 11.2462C24.3508 10.9067 24.3589 10.5557 24.2989 10.2132C24.239 9.8707 24.1122 9.54336 23.9259 9.24992Z" fill="#ABABAB"/>
<path d="M19.6159 17.4012C19.1778 16.8531 18.5872 16.4473 17.9189 16.2354C17.2505 16.0235 16.5344 16.0148 15.8612 16.2105C15.1879 16.4063 14.5877 16.7976 14.1365 17.335C13.6853 17.8724 13.4034 18.5318 13.3263 19.2297C13.2492 19.9277 13.3805 20.6329 13.7036 21.2561C14.0266 21.8793 14.5269 22.3925 15.1412 22.7309C15.7555 23.0692 16.4562 23.2175 17.1546 23.157C17.853 23.0965 18.5178 22.8298 19.065 22.3908C19.4283 22.0995 19.7307 21.7393 19.955 21.3308C20.1793 20.9224 20.3211 20.4737 20.3723 20.0103C20.4235 19.547 20.383 19.0781 20.2532 18.6304C20.1234 18.1827 19.9069 17.7651 19.6159 17.4012Z" fill="#ABABAB"/>
<path d="M16.4187 35.2051C17.0429 34.5847 17.4695 33.7928 17.6445 32.9296C17.8194 32.0664 17.7349 31.1705 17.4016 30.3554C17.0683 29.5403 16.5011 28.8425 15.7719 28.3502C15.0426 27.858 14.184 27.5934 13.3047 27.5899C12.4253 27.5864 11.5646 27.8442 10.8315 28.3307C10.0984 28.8171 9.52579 29.5104 9.18605 30.3229C8.84631 31.1353 8.75471 32.0305 8.92285 32.8951C9.09099 33.7597 9.5113 34.5549 10.1306 35.1802C10.5417 35.5957 11.0306 35.9259 11.5691 36.152C12.1077 36.3781 12.6855 36.4957 13.2695 36.498C13.8535 36.5003 14.4322 36.3873 14.9725 36.1655C15.5129 35.9436 16.0043 35.6173 16.4187 35.2051Z" fill="#ABABAB"/>
<path opacity="0.2" d="M21.2467 68.8732C21.3536 68.7466 21.4206 68.5911 21.4392 68.4264C21.4579 68.2617 21.4273 68.0952 21.3514 67.9479C21.2755 67.8006 21.1577 67.6792 21.0129 67.599C20.868 67.5188 20.7027 67.4834 20.5378 67.4974C20.3729 67.5113 20.2159 67.5739 20.0865 67.6773C19.9572 67.7807 19.8614 67.9202 19.8112 68.0782C19.761 68.2362 19.7588 68.4055 19.8047 68.5647C19.8507 68.724 19.9427 68.866 20.0693 68.9728C20.2389 69.1153 20.4579 69.1847 20.6785 69.1661C20.8991 69.1474 21.1034 69.0421 21.2467 68.8732Z" fill="#ABABAB"/>
<path opacity="0.4" d="M18.2187 61.7449C17.9832 61.4938 17.6785 61.3182 17.3434 61.2405C17.0082 61.1627 16.6576 61.1863 16.3358 61.3082C16.014 61.43 15.7356 61.6448 15.5356 61.9252C15.3357 62.2056 15.2232 62.5391 15.2125 62.8835C15.2018 63.228 15.2933 63.5678 15.4754 63.8602C15.6576 64.1525 15.9222 64.3842 16.2358 64.5259C16.5493 64.6676 16.8978 64.713 17.2372 64.6563C17.5765 64.5996 17.8914 64.4433 18.1421 64.2073C18.4782 63.891 18.6751 63.4538 18.6895 62.992C18.7038 62.5302 18.5345 62.0817 18.2187 61.7449Z" fill="#ABABAB"/>
<path opacity="0.6" d="M15.7086 53.5845C15.3953 53.1655 14.9649 52.8489 14.4719 52.6749C13.9789 52.5009 13.4455 52.4772 12.9391 52.6069C12.4327 52.7366 11.9761 53.0139 11.627 53.4036C11.2779 53.7933 11.0521 54.2779 10.9781 54.7962C10.904 55.3145 10.9851 55.8432 11.2111 56.3153C11.437 56.7874 11.7977 57.1818 12.2475 57.4485C12.6972 57.7153 13.2159 57.8424 13.7378 57.8139C14.2597 57.7853 14.7615 57.6024 15.1796 57.2881C15.7395 56.8669 16.1098 56.2403 16.209 55.546C16.3081 54.8516 16.1282 54.1461 15.7086 53.5845Z" fill="#ABABAB"/>
<path opacity="0.8" d="M15.2651 43.2756C14.908 42.6711 14.38 42.1862 13.7478 41.8823C13.1156 41.5784 12.4076 41.4691 11.7134 41.5683C11.0192 41.6674 10.3699 41.9706 9.84772 42.4394C9.32552 42.9081 8.95383 43.5215 8.77966 44.2019C8.6055 44.8823 8.63669 45.5992 8.86928 46.2618C9.10187 46.9244 9.52542 47.5031 10.0864 47.9246C10.6473 48.3461 11.3204 48.5915 12.0206 48.6298C12.7208 48.6681 13.4166 48.4975 14.02 48.1397C14.8289 47.66 15.4146 46.8781 15.648 45.9659C15.8815 45.0537 15.7438 44.0861 15.2651 43.2756Z" fill="#ABABAB"/>
<path d="M35.207 55.4683V53.0457C35.5103 53.3061 35.8442 53.5282 36.2015 53.7071C36.5948 53.9043 37.0028 54.0708 37.4217 54.2052C37.8454 54.3382 38.2772 54.4437 38.7145 54.5209C39.1105 54.5888 39.5112 54.6247 39.9128 54.6285C40.9068 54.7019 41.8981 54.4552 42.7421 53.9243C43.2035 53.5351 43.5173 52.9988 43.6308 52.4053C43.7443 51.8119 43.6507 51.1974 43.3656 50.6649C43.1399 50.2945 42.8476 49.9693 42.5034 49.7057C42.0971 49.3889 41.6619 49.111 41.2037 48.8759C40.7024 48.6103 40.1621 48.3313 39.5827 48.0391C38.9741 47.7264 38.4022 47.4146 37.8732 47.0958C37.3731 46.8009 36.91 46.4471 36.4939 46.0419C36.1087 45.6673 35.7956 45.225 35.57 44.737C35.3194 44.1302 35.2065 43.4753 35.2393 42.8195C35.2722 42.1637 35.45 41.5233 35.76 40.9447C36.1045 40.3594 36.5759 39.859 37.1393 39.4804C37.7362 39.0861 38.3961 38.797 39.0904 38.6258C39.8177 38.4353 40.5663 38.3389 41.318 38.3389C42.607 38.2576 43.8976 38.4712 45.092 38.9634V41.2764C43.908 40.5165 42.5192 40.1402 41.1142 40.1986C40.663 40.1984 40.213 40.2455 39.7716 40.3391C39.3495 40.4245 38.9445 40.5797 38.5733 40.7983C38.2298 41.0027 37.9378 41.2836 37.72 41.6191C37.4911 41.9846 37.3761 42.4101 37.3899 42.8414C37.3789 43.2431 37.4649 43.6415 37.6405 44.0028C37.8226 44.3488 38.0734 44.6539 38.3774 44.8994C38.7491 45.1976 39.1488 45.4591 39.5707 45.6803C40.0391 45.9313 40.5801 46.2132 41.1887 46.5101C41.8153 46.8229 42.409 47.1476 42.9788 47.4903C43.5139 47.8097 44.0096 48.1912 44.4556 48.6269C44.8666 49.0271 45.2069 49.4943 45.462 50.0085C45.7183 50.551 45.846 51.1456 45.8349 51.7457C45.857 52.5078 45.6823 53.2626 45.3277 53.9372C44.9971 54.5291 44.5279 55.0317 43.9603 55.4015C43.3519 55.7913 42.6781 56.0674 41.9714 56.2164C41.1941 56.3873 40.4003 56.4714 39.6046 56.4674C39.2613 56.4633 38.9184 56.4417 38.5773 56.4026C38.1705 56.3568 37.7519 56.2921 37.3322 56.2034C36.9247 56.1245 36.523 56.018 36.1299 55.8846C35.8054 55.787 35.4951 55.647 35.207 55.4683Z" fill="#ABABAB"/>
<path d="M53.8731 49.5472V56.1794H51.8215V38.6296H56.6348C58.2055 38.5312 59.7569 39.0192 60.9895 39.9993C61.5156 40.4899 61.9271 41.0908 62.1946 41.7591C62.4621 42.4273 62.579 43.1465 62.5369 43.8653C62.5604 44.6298 62.419 45.3903 62.1225 46.0951C61.8259 46.7999 61.3812 47.4324 60.8185 47.9494C59.5364 49.0622 57.8734 49.6335 56.1793 49.5432H53.8731V49.5472ZM53.8731 40.4894V47.6844H56.0232C57.1858 47.7665 58.3384 47.4212 59.2651 46.7132C59.6446 46.3679 59.9421 45.942 60.136 45.4667C60.33 44.9913 60.4153 44.4785 60.3859 43.9659C60.3859 41.6502 59.0168 40.4914 56.2787 40.4894H53.8731Z" fill="#ABABAB"/>
<path d="M72.0977 38.6296V40.3908H70.3882V54.4143H72.0977V56.1754H66.6281V54.4143H68.3356V40.3908H66.6232V38.6296H72.0977Z" fill="#ABABAB"/>
<path d="M91.6211 56.1794H89.1041L80.0892 42.1958C79.8638 41.8488 79.6751 41.4793 79.5264 41.0931H79.4558C79.5414 41.8936 79.5746 42.6988 79.5552 43.5037V56.1794H77.4987V38.6296H80.1618L88.933 52.3961C89.3 52.9689 89.5357 53.3584 89.6421 53.5725H89.6938C89.5926 52.7158 89.5517 51.853 89.5715 50.9906V38.6296H91.6231V56.1794H91.6211Z" fill="#ABABAB"/>
<path d="M108 56.1794H98.7156V38.6296H107.609V40.4894H100.767V46.3277H107.095V48.1725H100.767V54.3146H108V56.1774V56.1794Z" fill="#ABABAB"/>
</g>
<defs>
<clipPath id="clip0">
<rect width="108" height="90" fill="white"/>
</clipPath>
</defs>
</svg>
