<svg width="64" height="119" viewBox="0 0 64 119" fill="none" xmlns="http://www.w3.org/2000/svg">
<g clip-path="url(#clip0)">
<path d="M52.54 15.812C47.5918 15.8101 42.7398 17.1787 38.522 19.766V4.23048e-06H27.062C23.44 -0.00584746 19.8548 0.727443 16.526 2.155C13.305 3.53263 10.3837 5.52553 7.926 8.022C2.83366 13.18 -0.0150466 20.1408 5.94542e-06 27.389V118.004L13.09 104.756V27.389C13.0766 23.9445 14.3245 20.6141 16.5983 18.0266C18.872 15.4391 22.0143 13.7734 25.432 13.344V92.266L25.478 92.22L38.568 78.972V43.202C38.5546 39.7574 39.8025 36.4271 42.0763 33.8396C44.35 31.2521 47.4923 29.5864 50.91 29.157V66.479L64 53.231V15.812H52.54Z" fill="#2FD2B0"/>
</g>
<defs>
<clipPath id="clip0">
<rect width="64" height="118.003" fill="white"/>
</clipPath>
</defs>
</svg>
