<svg width="55" height="100" viewBox="0 0 55 100" fill="none" xmlns="http://www.w3.org/2000/svg">
<g clip-path="url(#clip0)">
<path d="M45.1516 13.3997C40.8992 13.3981 36.7295 14.5579 33.1048 16.7505V2.94468e-05H23.2564C20.1437 -0.00492948 17.0628 0.616487 14.202 1.82625C11.434 2.99371 8.92352 4.68256 6.8114 6.79816C2.43517 11.1692 -0.0129382 17.068 -2.40084e-06 23.2105V100.001L11.2492 88.774V23.2105C11.2377 20.2914 12.3101 17.4692 14.2641 15.2764C16.2181 13.0837 18.9185 11.6721 21.8556 11.3082V78.1896L21.8952 78.1506L33.1444 66.9238V36.611C33.1328 33.6919 34.2053 30.8697 36.1593 28.6769C38.1133 26.4842 40.8137 25.0727 43.7508 24.7087V56.3367L55 45.1099V13.3997H45.1516Z" fill="#2FD2B0"/>
</g>
<defs>
<clipPath id="clip0">
<rect width="55" height="100" fill="white"/>
</clipPath>
</defs>
</svg>
